<?xml version="1.0" encoding="utf-8"?>
<!-- Generator: Adobe Illustrator 19.0.0, SVG Export Plug-In . SVG Version: 6.00 Build 0)  -->
<svg version="1.1" xmlns="http://www.w3.org/2000/svg" xmlns:xlink="http://www.w3.org/1999/xlink" x="0px" y="0px"
	 viewBox="0 0 219.1 42.3" style="enable-background:new 0 0 219.1 42.3;" xml:space="preserve">
<style type="text/css">
	.st0{fill:#2C2B5C;}
	.st1{fill:#196FE5;}
	.st2{fill:#1B1464;}
	.st3{display:none;}
	.st4{display:inline;fill:#2C2B5C;}
	.st5{display:inline;fill:#196FE5;}
	.st6{display:inline;}
	.st7{fill:#666666;}
</style>
<g id="Layer_1">
	<g id="XMLID_122_">
		<path id="XMLID_8_" class="st0" d="M80.7,27.4c0,5.7-3.6,11.4-11,11.4c-3.5,0-5.5-1.1-6.6-1.9v1.4h-7.3V2.8h7.3v14.9
			c1.2-0.9,2.7-1.7,6.6-1.7C77.1,16,80.7,21.7,80.7,27.4z M66.5,31.6c3.4,0.9,6.6-2.2,5.6-5.6c-0.4-1.5-1.6-2.7-3.2-3.2
			c-3.4-0.9-6.6,2.2-5.6,5.6C63.8,30,65,31.2,66.5,31.6z"/>
		<path id="XMLID_11_" class="st0" d="M89.2,39C81.1,39,77,33.2,77,27.3c0-5.8,4.1-11.7,12.2-11.7c8.1,0,12,5.9,12,11.7
			C101.3,33.2,97.3,39,89.2,39z M89.2,31.9c2.6,0,4.6-2.1,4.6-4.6s-2-4.6-4.6-4.6c-2.5,0-4.6,2.1-4.6,4.6S86.7,31.9,89.2,31.9z"/>
		<path id="XMLID_14_" class="st0" d="M111.7,39c-8.1,0-12.2-5.8-12.2-11.7c0-5.8,4.1-11.7,12.2-11.7c8.1,0,12,5.9,12,11.7
			C123.8,33.2,119.8,39,111.7,39z M111.7,31.9c2.6,0,4.6-2.1,4.6-4.6s-2-4.6-4.6-4.6c-2.5,0-4.6,2.1-4.6,4.6S109.2,31.9,111.7,31.9z
			"/>
		<path id="XMLID_17_" class="st0" d="M139.1,16.2h9.5l-10,10.3l19.7,11.8h-18.5l-9-9.1v9.1h-8.4V2.8h8.4v21.3L139.1,16.2z"/>
		<path id="XMLID_19_" class="st0" d="M154.1,38.4V2.8h8.4v35.5H154.1z"/>
		<path id="XMLID_21_" class="st0" d="M177.8,32.8c2.7-0.4,3.5-1.3,3.8-2.4l7.2-1.2c-0.5,3.3-2.3,8.4-10.3,9.7
			c-7.7,1.3-12.5-3.8-13.4-9.5s2.2-12.4,9.9-13.7c8.5-1.4,13,3.7,14.1,9.9c0.1,0.4,0.1,0.8,0.2,1.2l-15.9,2.7
			C173.6,31.9,175.4,33.2,177.8,32.8z M175.7,21.3c-2.5,0.4-3.4,2.3-3.2,3.6l7.6-1.3C179.7,22.3,178.3,20.9,175.7,21.3z"/>
		<path id="XMLID_24_" class="st0" d="M191.7,23.1v-6.9h2.7V9.8h8.3v6.4h4.7v6.9h-4.7v15.2h-8.3V23.1H191.7z"/>
		<path id="XMLID_26_" class="st1" d="M211.8,38.5c-2.3,0-4.1-1.8-4.1-4.1s1.8-4.1,4.1-4.1c2.3,0,4.1,1.8,4.1,4.1
			S214.1,38.5,211.8,38.5z"/>
		<g id="XMLID_7_">
			<g id="XMLID_1_">
			</g>
			<g id="XMLID_4_">
				<rect id="XMLID_2_" x="5.9" y="5.4" class="st2" width="33.8" height="34.2"/>
				<polygon id="XMLID_30_" class="st1" points="16.3,15.9 29.3,15.9 29.3,2.8 3.4,2.8 3.4,29.1 16.3,29.1 				"/>
			</g>
		</g>
	</g>
</g>
<g id="Layer_2" class="st3">
	<path id="XMLID_411_" class="st4" d="M31.6,95.3c0,5.7-3.6,11.4-11,11.4c-3.5,0-5.5-1.1-6.6-1.9v1.4H6.7V70.7H14v14.9
		c1.2-0.9,2.7-1.7,6.6-1.7C28,83.9,31.6,89.6,31.6,95.3z M17.4,99.5c3.4,0.9,6.6-2.2,5.6-5.6c-0.4-1.5-1.6-2.7-3.2-3.2
		c-3.4-0.9-6.6,2.2-5.6,5.6C14.7,97.8,15.9,99.1,17.4,99.5z"/>
	<path id="XMLID_408_" class="st4" d="M40.1,106.9c-8.1,0-12.2-5.8-12.2-11.7c0-5.8,4.1-11.7,12.2-11.7c8.1,0,12,5.9,12,11.7
		C52.2,101,48.2,106.9,40.1,106.9z M40.1,99.8c2.6,0,4.6-2.1,4.6-4.6s-2-4.6-4.6-4.6c-2.5,0-4.6,2.1-4.6,4.6S37.6,99.8,40.1,99.8z"
		/>
	<path id="XMLID_405_" class="st4" d="M62.6,106.9c-8.1,0-12.2-5.8-12.2-11.7c0-5.8,4.1-11.7,12.2-11.7c8.1,0,12,5.9,12,11.7
		C74.7,101,70.7,106.9,62.6,106.9z M62.6,99.8c2.6,0,4.6-2.1,4.6-4.6s-2-4.6-4.6-4.6c-2.5,0-4.6,2.1-4.6,4.6S60.1,99.8,62.6,99.8z"
		/>
	<path id="XMLID_403_" class="st4" d="M90,84.1h9.5l-10,10.3l19.7,11.8H90.7l-9-9.1v9.1h-8.4V70.7h8.4V92L90,84.1z"/>
	<path id="XMLID_401_" class="st4" d="M105,106.2V70.7h8.4v35.5H105z"/>
	<path id="XMLID_398_" class="st4" d="M128.7,100.7c2.7-0.4,3.5-1.3,3.8-2.4l7.2-1.2c-0.5,3.3-2.3,8.4-10.3,9.7
		c-7.7,1.3-12.5-3.8-13.4-9.5c-1-5.6,2.2-12.4,9.9-13.7c8.5-1.4,13,3.7,14.1,9.9c0.1,0.4,0.1,0.8,0.2,1.2l-15.9,2.7
		C124.5,99.7,126.3,101.1,128.7,100.7z M126.6,89.2c-2.5,0.4-3.4,2.3-3.2,3.6l7.6-1.3C130.6,90.2,129.1,88.7,126.6,89.2z"/>
	<path id="XMLID_396_" class="st4" d="M142.6,91v-6.9h2.7v-6.4h8.3v6.4h4.7V91h-4.7v15.2h-8.3V91H142.6z"/>
	<path id="XMLID_394_" class="st5" d="M162.7,106.4c-2.3,0-4.1-1.8-4.1-4.1s1.8-4.1,4.1-4.1c2.3,0,4.1,1.8,4.1,4.1
		S165,106.4,162.7,106.4z"/>
</g>
<g id="Layer_3" class="st3">
	<g id="XMLID_454_" class="st6">
		<g id="XMLID_458_">
		</g>
		<g id="XMLID_455_">
			<rect id="XMLID_457_" x="5.9" y="142.6" class="st2" width="33.8" height="34.2"/>
			<polygon id="XMLID_456_" class="st1" points="16.3,153.2 29.3,153.2 29.3,140 3.4,140 3.4,166.3 16.3,166.3 			"/>
		</g>
	</g>
</g>
<g id="Layer_4" class="st3">
	<g id="XMLID_244_" class="st6">
		<path id="XMLID_81_" class="st2" d="M741.1,306.2c0,5.7-3.6,11.4-11,11.4c-3.5,0-5.5-1.1-6.6-1.9v1.4h-7.3v-35.5h7.3v14.9
			c1.2-0.9,2.7-1.7,6.6-1.7C737.5,294.8,741.1,300.5,741.1,306.2z M726.9,310.4c3.4,0.9,6.6-2.2,5.6-5.6c-0.4-1.5-1.6-2.7-3.2-3.2
			c-3.4-0.9-6.6,2.2-5.6,5.6C724.2,308.8,725.4,310,726.9,310.4z"/>
		<path id="XMLID_78_" class="st2" d="M749.6,317.8c-8.1,0-12.2-5.8-12.2-11.7c0-5.8,4.1-11.7,12.2-11.7c8.1,0,12,5.9,12,11.7
			C761.7,312,757.8,317.8,749.6,317.8z M749.6,310.7c2.6,0,4.6-2.1,4.6-4.6s-2-4.6-4.6-4.6c-2.5,0-4.6,2.1-4.6,4.6
			S747.1,310.7,749.6,310.7z"/>
		<path id="XMLID_75_" class="st2" d="M772.1,317.8c-8.1,0-12.2-5.8-12.2-11.7c0-5.8,4.1-11.7,12.2-11.7c8.1,0,12,5.9,12,11.7
			C784.2,312,780.2,317.8,772.1,317.8z M772.1,310.7c2.6,0,4.6-2.1,4.6-4.6s-2-4.6-4.6-4.6c-2.5,0-4.6,2.1-4.6,4.6
			S769.6,310.7,772.1,310.7z"/>
		<path id="XMLID_73_" class="st2" d="M799.5,295h9.5l-10,10.3l19.7,11.8h-18.5l-9-9.1v9.1h-8.4v-35.5h8.4v21.3L799.5,295z"/>
		<path id="XMLID_71_" class="st2" d="M814.5,317.1v-35.5h8.4v35.5H814.5z"/>
		<path id="XMLID_68_" class="st2" d="M838.2,311.6c2.7-0.4,3.5-1.3,3.8-2.4l7.2-1.2c-0.5,3.3-2.3,8.4-10.3,9.7
			c-7.7,1.3-12.5-3.8-13.4-9.5s2.2-12.4,9.9-13.6c8.5-1.4,13,3.7,14.1,9.9c0.1,0.4,0.1,0.8,0.2,1.2l-15.9,2.7
			C834.1,310.7,835.8,312,838.2,311.6z M836.2,300.1c-2.5,0.4-3.4,2.3-3.2,3.6l7.6-1.3C840.1,301.1,838.7,299.6,836.2,300.1z"/>
		<path id="XMLID_66_" class="st2" d="M852.2,301.9v-6.9h2.7v-6.4h8.3v6.4h4.7v6.9h-4.7v15.2h-8.3v-15.2H852.2z"/>
		<path id="XMLID_64_" class="st1" d="M872.2,317.3c-2.3,0-4.1-1.8-4.1-4.1s1.8-4.1,4.1-4.1c2.3,0,4.1,1.8,4.1,4.1
			S874.5,317.3,872.2,317.3z"/>
		<g id="XMLID_56_">
			<g id="XMLID_60_">
			</g>
			<g id="XMLID_57_">
				<rect id="XMLID_59_" x="666.3" y="284.2" class="st2" width="33.8" height="34.2"/>
				<polygon id="XMLID_58_" class="st1" points="676.8,294.7 689.7,294.7 689.7,281.6 663.8,281.6 663.8,307.8 676.8,307.8 				"/>
			</g>
		</g>
	</g>
	<g id="XMLID_239_" class="st6">
		<rect id="XMLID_204_" x="651.2" y="511.3" class="st2" width="28.9" height="29.3"/>
		<g>
			<path id="XMLID_627_" class="st7" d="M655.8,548.9v-2.8h0.8c0.2,0,0.4,0.1,0.6,0.2s0.2,0.3,0.2,0.5c0,0.2,0,0.3-0.1,0.4
				s-0.2,0.2-0.4,0.3v0c0.2,0,0.3,0.1,0.5,0.2s0.2,0.3,0.2,0.5c0,0.2-0.1,0.4-0.3,0.6s-0.4,0.2-0.7,0.2H655.8z M656.2,546.4v0.9h0.3
				c0.2,0,0.3,0,0.4-0.1s0.2-0.2,0.2-0.4c0-0.3-0.2-0.4-0.5-0.4H656.2z M656.2,547.6v1h0.4c0.2,0,0.3,0,0.4-0.1s0.2-0.2,0.2-0.4
				c0-0.3-0.2-0.5-0.7-0.5H656.2z"/>
			<path id="XMLID_631_" class="st7" d="M658.9,548.9c-0.3,0-0.5-0.1-0.7-0.3s-0.3-0.4-0.3-0.7c0-0.3,0.1-0.6,0.3-0.8
				s0.4-0.3,0.7-0.3c0.3,0,0.5,0.1,0.7,0.3s0.3,0.4,0.3,0.8c0,0.3-0.1,0.6-0.3,0.8S659.2,548.9,658.9,548.9z M658.9,547.1
				c-0.2,0-0.4,0.1-0.5,0.2s-0.2,0.3-0.2,0.6c0,0.2,0.1,0.4,0.2,0.6s0.3,0.2,0.5,0.2c0.2,0,0.4-0.1,0.5-0.2s0.2-0.3,0.2-0.6
				c0-0.3-0.1-0.4-0.2-0.6S659.1,547.1,658.9,547.1z"/>
			<path id="XMLID_634_" class="st7" d="M661.3,548.9c-0.3,0-0.5-0.1-0.7-0.3s-0.3-0.4-0.3-0.7c0-0.3,0.1-0.6,0.3-0.8
				s0.4-0.3,0.7-0.3c0.3,0,0.5,0.1,0.7,0.3s0.3,0.4,0.3,0.8c0,0.3-0.1,0.6-0.3,0.8S661.6,548.9,661.3,548.9z M661.3,547.1
				c-0.2,0-0.4,0.1-0.5,0.2s-0.2,0.3-0.2,0.6c0,0.2,0.1,0.4,0.2,0.6s0.3,0.2,0.5,0.2c0.2,0,0.4-0.1,0.5-0.2s0.2-0.3,0.2-0.6
				c0-0.3-0.1-0.4-0.2-0.6S661.5,547.1,661.3,547.1z"/>
			<path id="XMLID_637_" class="st7" d="M664.4,548.9H664l-0.9-1h0v1h-0.3v-3h0.3v1.9h0l0.8-0.9h0.4l-0.9,1L664.4,548.9z"/>
			<path id="XMLID_639_" class="st7" d="M667.8,548.7c-0.2,0.1-0.5,0.2-0.8,0.2c-0.4,0-0.7-0.1-1-0.4s-0.4-0.6-0.4-1
				c0-0.4,0.1-0.8,0.4-1.1s0.6-0.4,1-0.4c0.3,0,0.5,0,0.7,0.1v0.3c-0.2-0.1-0.4-0.2-0.7-0.2c-0.3,0-0.6,0.1-0.8,0.3
				s-0.3,0.5-0.3,0.9c0,0.3,0.1,0.6,0.3,0.8s0.4,0.3,0.7,0.3c0.3,0,0.5-0.1,0.7-0.2V548.7z"/>
			<path id="XMLID_641_" class="st7" d="M669.2,548.9c-0.3,0-0.5-0.1-0.7-0.3s-0.3-0.4-0.3-0.7c0-0.3,0.1-0.6,0.3-0.8
				s0.4-0.3,0.7-0.3c0.3,0,0.5,0.1,0.7,0.3s0.3,0.4,0.3,0.8c0,0.3-0.1,0.6-0.3,0.8S669.5,548.9,669.2,548.9z M669.2,547.1
				c-0.2,0-0.4,0.1-0.5,0.2s-0.2,0.3-0.2,0.6c0,0.2,0.1,0.4,0.2,0.6s0.3,0.2,0.5,0.2c0.2,0,0.4-0.1,0.5-0.2s0.2-0.3,0.2-0.6
				c0-0.3-0.1-0.4-0.2-0.6S669.4,547.1,669.2,547.1z"/>
			<path id="XMLID_644_" class="st7" d="M672.2,546.9l-0.8,2h-0.3l-0.8-2h0.4l0.5,1.5c0,0.1,0.1,0.2,0.1,0.3h0c0-0.1,0-0.2,0.1-0.3
				l0.5-1.5H672.2z"/>
			<path id="XMLID_646_" class="st7" d="M674.2,547.9h-1.4c0,0.2,0.1,0.4,0.2,0.5s0.3,0.2,0.5,0.2c0.2,0,0.4-0.1,0.6-0.2v0.3
				c-0.2,0.1-0.4,0.2-0.7,0.2c-0.3,0-0.5-0.1-0.7-0.3s-0.2-0.4-0.2-0.8c0-0.3,0.1-0.6,0.3-0.8s0.4-0.3,0.7-0.3s0.5,0.1,0.6,0.3
				s0.2,0.4,0.2,0.7V547.9z M673.9,547.7c0-0.2,0-0.3-0.1-0.4s-0.2-0.2-0.4-0.2c-0.2,0-0.3,0.1-0.4,0.2s-0.2,0.2-0.2,0.4H673.9z"/>
			<path id="XMLID_649_" class="st7" d="M675.7,547.2c-0.1,0-0.1-0.1-0.2-0.1c-0.1,0-0.3,0.1-0.3,0.2s-0.1,0.3-0.1,0.5v1h-0.3v-2
				h0.3v0.4h0c0-0.1,0.1-0.3,0.2-0.3s0.2-0.1,0.3-0.1c0.1,0,0.1,0,0.2,0V547.2z"/>
		</g>
		<g id="XMLID_203_">
			<path id="XMLID_569_" class="st7" d="M655.8,548.9v-2.8h0.8c0.2,0,0.4,0.1,0.6,0.2s0.2,0.3,0.2,0.5c0,0.2,0,0.3-0.1,0.4
				s-0.2,0.2-0.4,0.3v0c0.2,0,0.3,0.1,0.5,0.2s0.2,0.3,0.2,0.5c0,0.2-0.1,0.4-0.3,0.6s-0.4,0.2-0.7,0.2H655.8z M656.2,546.4v0.9h0.3
				c0.2,0,0.3,0,0.4-0.1s0.2-0.2,0.2-0.4c0-0.3-0.2-0.4-0.5-0.4H656.2z M656.2,547.6v1h0.4c0.2,0,0.3,0,0.4-0.1s0.2-0.2,0.2-0.4
				c0-0.3-0.2-0.5-0.7-0.5H656.2z"/>
			<path id="XMLID_573_" class="st7" d="M658.9,548.9c-0.3,0-0.5-0.1-0.7-0.3s-0.3-0.4-0.3-0.7c0-0.3,0.1-0.6,0.3-0.8
				s0.4-0.3,0.7-0.3c0.3,0,0.5,0.1,0.7,0.3s0.3,0.4,0.3,0.8c0,0.3-0.1,0.6-0.3,0.8S659.2,548.9,658.9,548.9z M658.9,547.1
				c-0.2,0-0.4,0.1-0.5,0.2s-0.2,0.3-0.2,0.6c0,0.2,0.1,0.4,0.2,0.6s0.3,0.2,0.5,0.2c0.2,0,0.4-0.1,0.5-0.2s0.2-0.3,0.2-0.6
				c0-0.3-0.1-0.4-0.2-0.6S659.1,547.1,658.9,547.1z"/>
			<path id="XMLID_576_" class="st7" d="M661.3,548.9c-0.3,0-0.5-0.1-0.7-0.3s-0.3-0.4-0.3-0.7c0-0.3,0.1-0.6,0.3-0.8
				s0.4-0.3,0.7-0.3c0.3,0,0.5,0.1,0.7,0.3s0.3,0.4,0.3,0.8c0,0.3-0.1,0.6-0.3,0.8S661.6,548.9,661.3,548.9z M661.3,547.1
				c-0.2,0-0.4,0.1-0.5,0.2s-0.2,0.3-0.2,0.6c0,0.2,0.1,0.4,0.2,0.6s0.3,0.2,0.5,0.2c0.2,0,0.4-0.1,0.5-0.2s0.2-0.3,0.2-0.6
				c0-0.3-0.1-0.4-0.2-0.6S661.5,547.1,661.3,547.1z"/>
			<path id="XMLID_579_" class="st7" d="M664.4,548.9H664l-0.9-1h0v1h-0.3v-3h0.3v1.9h0l0.8-0.9h0.4l-0.9,1L664.4,548.9z"/>
			<path id="XMLID_581_" class="st7" d="M667.8,548.7c-0.2,0.1-0.5,0.2-0.8,0.2c-0.4,0-0.7-0.1-1-0.4s-0.4-0.6-0.4-1
				c0-0.4,0.1-0.8,0.4-1.1s0.6-0.4,1-0.4c0.3,0,0.5,0,0.7,0.1v0.3c-0.2-0.1-0.4-0.2-0.7-0.2c-0.3,0-0.6,0.1-0.8,0.3
				s-0.3,0.5-0.3,0.9c0,0.3,0.1,0.6,0.3,0.8s0.4,0.3,0.7,0.3c0.3,0,0.5-0.1,0.7-0.2V548.7z"/>
			<path id="XMLID_583_" class="st7" d="M669.2,548.9c-0.3,0-0.5-0.1-0.7-0.3s-0.3-0.4-0.3-0.7c0-0.3,0.1-0.6,0.3-0.8
				s0.4-0.3,0.7-0.3c0.3,0,0.5,0.1,0.7,0.3s0.3,0.4,0.3,0.8c0,0.3-0.1,0.6-0.3,0.8S669.5,548.9,669.2,548.9z M669.2,547.1
				c-0.2,0-0.4,0.1-0.5,0.2s-0.2,0.3-0.2,0.6c0,0.2,0.1,0.4,0.2,0.6s0.3,0.2,0.5,0.2c0.2,0,0.4-0.1,0.5-0.2s0.2-0.3,0.2-0.6
				c0-0.3-0.1-0.4-0.2-0.6S669.4,547.1,669.2,547.1z"/>
			<path id="XMLID_586_" class="st7" d="M672.2,546.9l-0.8,2h-0.3l-0.8-2h0.4l0.5,1.5c0,0.1,0.1,0.2,0.1,0.3h0c0-0.1,0-0.2,0.1-0.3
				l0.5-1.5H672.2z"/>
			<path id="XMLID_588_" class="st7" d="M674.2,547.9h-1.4c0,0.2,0.1,0.4,0.2,0.5s0.3,0.2,0.5,0.2c0.2,0,0.4-0.1,0.6-0.2v0.3
				c-0.2,0.1-0.4,0.2-0.7,0.2c-0.3,0-0.5-0.1-0.7-0.3s-0.2-0.4-0.2-0.8c0-0.3,0.1-0.6,0.3-0.8s0.4-0.3,0.7-0.3s0.5,0.1,0.6,0.3
				s0.2,0.4,0.2,0.7V547.9z M673.9,547.7c0-0.2,0-0.3-0.1-0.4s-0.2-0.2-0.4-0.2c-0.2,0-0.3,0.1-0.4,0.2s-0.2,0.2-0.2,0.4H673.9z"/>
			<path id="XMLID_591_" class="st7" d="M675.7,547.2c-0.1,0-0.1-0.1-0.2-0.1c-0.1,0-0.3,0.1-0.3,0.2s-0.1,0.3-0.1,0.5v1h-0.3v-2
				h0.3v0.4h0c0-0.1,0.1-0.3,0.2-0.3s0.2-0.1,0.3-0.1c0.1,0,0.1,0,0.2,0V547.2z"/>
		</g>
	</g>
	<g id="XMLID_238_" class="st6">
		<g id="XMLID_205_">
			<rect id="XMLID_207_" x="756.2" y="505.9" class="st1" width="26.2" height="26.6"/>
			<rect id="XMLID_206_" x="769.3" y="519.2" class="st1" width="26.2" height="26.6"/>
		</g>
		<g>
			<path id="XMLID_651_" class="st7" d="M771.4,553.2v1.1h-0.3v-2.8h0.8c0.3,0,0.5,0.1,0.7,0.2s0.2,0.4,0.2,0.6s-0.1,0.5-0.3,0.7
				s-0.4,0.3-0.7,0.3H771.4z M771.4,551.8v1.1h0.3c0.2,0,0.4-0.1,0.5-0.2s0.2-0.3,0.2-0.4c0-0.4-0.2-0.6-0.7-0.6H771.4z"/>
			<path id="XMLID_654_" class="st7" d="M774.7,554.3h-0.3v-0.3h0c-0.1,0.2-0.3,0.4-0.6,0.4c-0.2,0-0.4-0.1-0.5-0.2
				s-0.2-0.2-0.2-0.4c0-0.4,0.2-0.6,0.7-0.7l0.6-0.1c0-0.3-0.1-0.5-0.4-0.5c-0.2,0-0.5,0.1-0.7,0.2v-0.3c0.2-0.1,0.4-0.2,0.7-0.2
				c0.5,0,0.7,0.2,0.7,0.7V554.3z M774.4,553.2l-0.5,0.1c-0.1,0-0.3,0.1-0.3,0.1s-0.1,0.1-0.1,0.3c0,0.1,0,0.2,0.1,0.2
				s0.2,0.1,0.3,0.1c0.2,0,0.3-0.1,0.4-0.2s0.2-0.3,0.2-0.4V553.2z"/>
			<path id="XMLID_657_" class="st7" d="M777,554.1c0,0.7-0.4,1.1-1.1,1.1c-0.2,0-0.5,0-0.6-0.1v-0.3c0.2,0.1,0.4,0.2,0.6,0.2
				c0.5,0,0.7-0.3,0.7-0.8v-0.2h0c-0.2,0.3-0.4,0.4-0.7,0.4c-0.2,0-0.4-0.1-0.6-0.3s-0.2-0.4-0.2-0.7c0-0.3,0.1-0.6,0.2-0.8
				s0.4-0.3,0.7-0.3c0.3,0,0.5,0.1,0.6,0.3h0v-0.3h0.3V554.1z M776.7,553.4v-0.3c0-0.2-0.1-0.3-0.2-0.4s-0.2-0.2-0.4-0.2
				c-0.2,0-0.4,0.1-0.5,0.2s-0.2,0.3-0.2,0.6c0,0.2,0.1,0.4,0.2,0.5s0.3,0.2,0.4,0.2c0.2,0,0.3-0.1,0.4-0.2S776.7,553.6,776.7,553.4
				z"/>
			<path id="XMLID_660_" class="st7" d="M779.3,553.3h-1.4c0,0.2,0.1,0.4,0.2,0.5s0.3,0.2,0.5,0.2c0.2,0,0.4-0.1,0.6-0.2v0.3
				c-0.2,0.1-0.4,0.2-0.7,0.2c-0.3,0-0.5-0.1-0.7-0.3s-0.2-0.4-0.2-0.8c0-0.3,0.1-0.6,0.3-0.8s0.4-0.3,0.7-0.3s0.5,0.1,0.6,0.3
				s0.2,0.4,0.2,0.7V553.3z M779,553.1c0-0.2,0-0.3-0.1-0.4s-0.2-0.2-0.4-0.2c-0.2,0-0.3,0.1-0.4,0.2s-0.2,0.2-0.2,0.4H779z"/>
			<path id="XMLID_663_" class="st7" d="M779.7,554.2v-0.3c0.2,0.1,0.4,0.2,0.6,0.2c0.3,0,0.4-0.1,0.4-0.3c0-0.1,0-0.1,0-0.1
				s-0.1-0.1-0.1-0.1s-0.1-0.1-0.1-0.1s-0.1,0-0.2-0.1c-0.1,0-0.2-0.1-0.2-0.1s-0.1-0.1-0.2-0.1s-0.1-0.1-0.1-0.2s0-0.1,0-0.2
				c0-0.1,0-0.2,0.1-0.2s0.1-0.1,0.2-0.2s0.2-0.1,0.2-0.1s0.2,0,0.3,0c0.2,0,0.3,0,0.5,0.1v0.3c-0.1-0.1-0.3-0.1-0.5-0.1
				c-0.1,0-0.1,0-0.2,0s-0.1,0-0.1,0.1s-0.1,0.1-0.1,0.1s0,0.1,0,0.1c0,0.1,0,0.1,0,0.1s0,0.1,0.1,0.1s0.1,0.1,0.1,0.1
				s0.1,0,0.2,0.1c0.1,0,0.2,0.1,0.2,0.1s0.1,0.1,0.2,0.1s0.1,0.1,0.1,0.2s0,0.1,0,0.2c0,0.1,0,0.2-0.1,0.3s-0.1,0.1-0.2,0.2
				s-0.2,0.1-0.3,0.1s-0.2,0-0.3,0C780,554.3,779.8,554.3,779.7,554.2z"/>
		</g>
		<g id="XMLID_230_">
			<path id="XMLID_593_" class="st7" d="M771.4,553.2v1.1h-0.3v-2.8h0.8c0.3,0,0.5,0.1,0.7,0.2s0.2,0.4,0.2,0.6s-0.1,0.5-0.3,0.7
				s-0.4,0.3-0.7,0.3H771.4z M771.4,551.8v1.1h0.3c0.2,0,0.4-0.1,0.5-0.2s0.2-0.3,0.2-0.4c0-0.4-0.2-0.6-0.7-0.6H771.4z"/>
			<path id="XMLID_596_" class="st7" d="M774.7,554.3h-0.3v-0.3h0c-0.1,0.2-0.3,0.4-0.6,0.4c-0.2,0-0.4-0.1-0.5-0.2
				s-0.2-0.2-0.2-0.4c0-0.4,0.2-0.6,0.7-0.7l0.6-0.1c0-0.3-0.1-0.5-0.4-0.5c-0.2,0-0.5,0.1-0.7,0.2v-0.3c0.2-0.1,0.4-0.2,0.7-0.2
				c0.5,0,0.7,0.2,0.7,0.7V554.3z M774.4,553.2l-0.5,0.1c-0.1,0-0.3,0.1-0.3,0.1s-0.1,0.1-0.1,0.3c0,0.1,0,0.2,0.1,0.2
				s0.2,0.1,0.3,0.1c0.2,0,0.3-0.1,0.4-0.2s0.2-0.3,0.2-0.4V553.2z"/>
			<path id="XMLID_599_" class="st7" d="M777,554.1c0,0.7-0.4,1.1-1.1,1.1c-0.2,0-0.5,0-0.6-0.1v-0.3c0.2,0.1,0.4,0.2,0.6,0.2
				c0.5,0,0.7-0.3,0.7-0.8v-0.2h0c-0.2,0.3-0.4,0.4-0.7,0.4c-0.2,0-0.4-0.1-0.6-0.3s-0.2-0.4-0.2-0.7c0-0.3,0.1-0.6,0.2-0.8
				s0.4-0.3,0.7-0.3c0.3,0,0.5,0.1,0.6,0.3h0v-0.3h0.3V554.1z M776.7,553.4v-0.3c0-0.2-0.1-0.3-0.2-0.4s-0.2-0.2-0.4-0.2
				c-0.2,0-0.4,0.1-0.5,0.2s-0.2,0.3-0.2,0.6c0,0.2,0.1,0.4,0.2,0.5s0.3,0.2,0.4,0.2c0.2,0,0.3-0.1,0.4-0.2S776.7,553.6,776.7,553.4
				z"/>
			<path id="XMLID_602_" class="st7" d="M779.3,553.3h-1.4c0,0.2,0.1,0.4,0.2,0.5s0.3,0.2,0.5,0.2c0.2,0,0.4-0.1,0.6-0.2v0.3
				c-0.2,0.1-0.4,0.2-0.7,0.2c-0.3,0-0.5-0.1-0.7-0.3s-0.2-0.4-0.2-0.8c0-0.3,0.1-0.6,0.3-0.8s0.4-0.3,0.7-0.3s0.5,0.1,0.6,0.3
				s0.2,0.4,0.2,0.7V553.3z M779,553.1c0-0.2,0-0.3-0.1-0.4s-0.2-0.2-0.4-0.2c-0.2,0-0.3,0.1-0.4,0.2s-0.2,0.2-0.2,0.4H779z"/>
			<path id="XMLID_605_" class="st7" d="M779.7,554.2v-0.3c0.2,0.1,0.4,0.2,0.6,0.2c0.3,0,0.4-0.1,0.4-0.3c0-0.1,0-0.1,0-0.1
				s-0.1-0.1-0.1-0.1s-0.1-0.1-0.1-0.1s-0.1,0-0.2-0.1c-0.1,0-0.2-0.1-0.2-0.1s-0.1-0.1-0.2-0.1s-0.1-0.1-0.1-0.2s0-0.1,0-0.2
				c0-0.1,0-0.2,0.1-0.2s0.1-0.1,0.2-0.2s0.2-0.1,0.2-0.1s0.2,0,0.3,0c0.2,0,0.3,0,0.5,0.1v0.3c-0.1-0.1-0.3-0.1-0.5-0.1
				c-0.1,0-0.1,0-0.2,0s-0.1,0-0.1,0.1s-0.1,0.1-0.1,0.1s0,0.1,0,0.1c0,0.1,0,0.1,0,0.1s0,0.1,0.1,0.1s0.1,0.1,0.1,0.1
				s0.1,0,0.2,0.1c0.1,0,0.2,0.1,0.2,0.1s0.1,0.1,0.2,0.1s0.1,0.1,0.1,0.2s0,0.1,0,0.2c0,0.1,0,0.2-0.1,0.3s-0.1,0.1-0.2,0.2
				s-0.2,0.1-0.3,0.1s-0.2,0-0.3,0C780,554.3,779.8,554.3,779.7,554.2z"/>
		</g>
	</g>
	<g id="XMLID_234_" class="st6">
		<g id="XMLID_208_">
			<g id="XMLID_212_">
			</g>
			<g id="XMLID_209_">
				<rect id="XMLID_211_" x="872.9" y="512.1" class="st2" width="28.9" height="29.3"/>
				<polygon id="XMLID_210_" class="st1" points="881.8,521.1 892.9,521.1 892.9,509.9 870.7,509.9 870.7,532.4 881.8,532.4 				"/>
			</g>
		</g>
		<g>
			<path id="XMLID_665_" class="st7" d="M879.9,550.3v-2.8h0.8c0.2,0,0.4,0.1,0.6,0.2s0.2,0.3,0.2,0.5c0,0.2,0,0.3-0.1,0.4
				s-0.2,0.2-0.4,0.3v0c0.2,0,0.3,0.1,0.5,0.2s0.2,0.3,0.2,0.5c0,0.2-0.1,0.4-0.3,0.6s-0.4,0.2-0.7,0.2H879.9z M880.2,547.8v0.9h0.3
				c0.2,0,0.3,0,0.4-0.1s0.2-0.2,0.2-0.4c0-0.3-0.2-0.4-0.5-0.4H880.2z M880.2,549v1h0.4c0.2,0,0.3,0,0.4-0.1s0.2-0.2,0.2-0.4
				c0-0.3-0.2-0.5-0.7-0.5H880.2z"/>
			<path id="XMLID_669_" class="st7" d="M883,550.3c-0.3,0-0.5-0.1-0.7-0.3s-0.3-0.4-0.3-0.7c0-0.3,0.1-0.6,0.3-0.8s0.4-0.3,0.7-0.3
				c0.3,0,0.5,0.1,0.7,0.3s0.3,0.4,0.3,0.8c0,0.3-0.1,0.6-0.3,0.8S883.3,550.3,883,550.3z M883,548.5c-0.2,0-0.4,0.1-0.5,0.2
				s-0.2,0.3-0.2,0.6c0,0.2,0.1,0.4,0.2,0.6s0.3,0.2,0.5,0.2c0.2,0,0.4-0.1,0.5-0.2s0.2-0.3,0.2-0.6c0-0.3-0.1-0.4-0.2-0.6
				S883.2,548.5,883,548.5z"/>
			<path id="XMLID_672_" class="st7" d="M885.3,550.3c-0.3,0-0.5-0.1-0.7-0.3s-0.3-0.4-0.3-0.7c0-0.3,0.1-0.6,0.3-0.8
				s0.4-0.3,0.7-0.3c0.3,0,0.5,0.1,0.7,0.3s0.3,0.4,0.3,0.8c0,0.3-0.1,0.6-0.3,0.8S885.6,550.3,885.3,550.3z M885.4,548.5
				c-0.2,0-0.4,0.1-0.5,0.2s-0.2,0.3-0.2,0.6c0,0.2,0.1,0.4,0.2,0.6s0.3,0.2,0.5,0.2c0.2,0,0.4-0.1,0.5-0.2s0.2-0.3,0.2-0.6
				c0-0.3-0.1-0.4-0.2-0.6S885.6,548.5,885.4,548.5z"/>
			<path id="XMLID_675_" class="st7" d="M888.5,550.3h-0.4l-0.9-1h0v1h-0.3v-3h0.3v1.9h0l0.8-0.9h0.4l-0.9,1L888.5,550.3z"/>
			<path id="XMLID_677_" class="st7" d="M889.2,550.3h-0.3v-3h0.3V550.3z"/>
			<path id="XMLID_679_" class="st7" d="M891.4,549.4H890c0,0.2,0.1,0.4,0.2,0.5s0.3,0.2,0.5,0.2c0.2,0,0.4-0.1,0.6-0.2v0.3
				c-0.2,0.1-0.4,0.2-0.7,0.2c-0.3,0-0.5-0.1-0.7-0.3s-0.2-0.4-0.2-0.8c0-0.3,0.1-0.6,0.3-0.8s0.4-0.3,0.7-0.3s0.5,0.1,0.6,0.3
				s0.2,0.4,0.2,0.7V549.4z M891.1,549.1c0-0.2,0-0.3-0.1-0.4s-0.2-0.2-0.4-0.2c-0.2,0-0.3,0.1-0.4,0.2s-0.2,0.2-0.2,0.4H891.1z"/>
			<path id="XMLID_682_" class="st7" d="M892.8,550.3c-0.1,0-0.2,0.1-0.3,0.1c-0.4,0-0.5-0.2-0.5-0.6v-1.2h-0.3v-0.3h0.3v-0.5
				l0.3-0.1v0.6h0.5v0.3h-0.5v1.1c0,0.1,0,0.2,0.1,0.3s0.1,0.1,0.2,0.1c0.1,0,0.2,0,0.2-0.1V550.3z"/>
		</g>
		<g id="XMLID_231_">
			<path id="XMLID_607_" class="st7" d="M879.9,550.3v-2.8h0.8c0.2,0,0.4,0.1,0.6,0.2s0.2,0.3,0.2,0.5c0,0.2,0,0.3-0.1,0.4
				s-0.2,0.2-0.4,0.3v0c0.2,0,0.3,0.1,0.5,0.2s0.2,0.3,0.2,0.5c0,0.2-0.1,0.4-0.3,0.6s-0.4,0.2-0.7,0.2H879.9z M880.2,547.8v0.9h0.3
				c0.2,0,0.3,0,0.4-0.1s0.2-0.2,0.2-0.4c0-0.3-0.2-0.4-0.5-0.4H880.2z M880.2,549v1h0.4c0.2,0,0.3,0,0.4-0.1s0.2-0.2,0.2-0.4
				c0-0.3-0.2-0.5-0.7-0.5H880.2z"/>
			<path id="XMLID_611_" class="st7" d="M883,550.3c-0.3,0-0.5-0.1-0.7-0.3s-0.3-0.4-0.3-0.7c0-0.3,0.1-0.6,0.3-0.8s0.4-0.3,0.7-0.3
				c0.3,0,0.5,0.1,0.7,0.3s0.3,0.4,0.3,0.8c0,0.3-0.1,0.6-0.3,0.8S883.3,550.3,883,550.3z M883,548.5c-0.2,0-0.4,0.1-0.5,0.2
				s-0.2,0.3-0.2,0.6c0,0.2,0.1,0.4,0.2,0.6s0.3,0.2,0.5,0.2c0.2,0,0.4-0.1,0.5-0.2s0.2-0.3,0.2-0.6c0-0.3-0.1-0.4-0.2-0.6
				S883.2,548.5,883,548.5z"/>
			<path id="XMLID_614_" class="st7" d="M885.3,550.3c-0.3,0-0.5-0.1-0.7-0.3s-0.3-0.4-0.3-0.7c0-0.3,0.1-0.6,0.3-0.8
				s0.4-0.3,0.7-0.3c0.3,0,0.5,0.1,0.7,0.3s0.3,0.4,0.3,0.8c0,0.3-0.1,0.6-0.3,0.8S885.6,550.3,885.3,550.3z M885.4,548.5
				c-0.2,0-0.4,0.1-0.5,0.2s-0.2,0.3-0.2,0.6c0,0.2,0.1,0.4,0.2,0.6s0.3,0.2,0.5,0.2c0.2,0,0.4-0.1,0.5-0.2s0.2-0.3,0.2-0.6
				c0-0.3-0.1-0.4-0.2-0.6S885.6,548.5,885.4,548.5z"/>
			<path id="XMLID_617_" class="st7" d="M888.5,550.3h-0.4l-0.9-1h0v1h-0.3v-3h0.3v1.9h0l0.8-0.9h0.4l-0.9,1L888.5,550.3z"/>
			<path id="XMLID_619_" class="st7" d="M889.2,550.3h-0.3v-3h0.3V550.3z"/>
			<path id="XMLID_621_" class="st7" d="M891.4,549.4H890c0,0.2,0.1,0.4,0.2,0.5s0.3,0.2,0.5,0.2c0.2,0,0.4-0.1,0.6-0.2v0.3
				c-0.2,0.1-0.4,0.2-0.7,0.2c-0.3,0-0.5-0.1-0.7-0.3s-0.2-0.4-0.2-0.8c0-0.3,0.1-0.6,0.3-0.8s0.4-0.3,0.7-0.3s0.5,0.1,0.6,0.3
				s0.2,0.4,0.2,0.7V549.4z M891.1,549.1c0-0.2,0-0.3-0.1-0.4s-0.2-0.2-0.4-0.2c-0.2,0-0.3,0.1-0.4,0.2s-0.2,0.2-0.2,0.4H891.1z"/>
			<path id="XMLID_624_" class="st7" d="M892.8,550.3c-0.1,0-0.2,0.1-0.3,0.1c-0.4,0-0.5-0.2-0.5-0.6v-1.2h-0.3v-0.3h0.3v-0.5
				l0.3-0.1v0.6h0.5v0.3h-0.5v1.1c0,0.1,0,0.2,0.1,0.3s0.1,0.1,0.2,0.1c0.1,0,0.2,0,0.2-0.1V550.3z"/>
		</g>
	</g>
	<g id="XMLID_136_" class="st6">
		<path id="XMLID_240_" class="st1" d="M1202.2,299h5.9c2.6,0,4.7-2.1,4.7-4.7v-5.9c0-2.6-2.1-4.7-4.7-4.7h-5.9
			c-2.6,0-4.7,2.1-4.7,4.7v5.9C1197.5,296.9,1199.6,299,1202.2,299z"/>
		<path id="XMLID_242_" class="st2" d="M1202.2,320h5.9c2.6,0,4.7-2.1,4.7-4.7v-5.9c0-2.6-2.1-4.7-4.7-4.7h-5.9
			c-2.6,0-4.7,2.1-4.7,4.7v5.9C1197.5,317.9,1199.6,320,1202.2,320z"/>
	</g>
</g>
</svg>
